<?xml version="1.0" encoding="utf-8"?>
<!-- Generator: Adobe Illustrator 24.3.0, SVG Export Plug-In . SVG Version: 6.00 Build 0)  -->
<svg version="1.1" id="Layer_1" xmlns="http://www.w3.org/2000/svg" xmlns:xlink="http://www.w3.org/1999/xlink" x="0px" y="0px"
	 viewBox="0 0 108 108" style="enable-background:new 0 0 108 108;" xml:space="preserve">
<style type="text/css">
	.st0{fill:#606060;}
	.st1{fill:#EFEFEF;}
	.st2{fill:#0F0F0F;}
</style>
<g>
	<path class="st2" d="M28.5,29.2v51.3h52V29.2H28.5z M79.3,32.4c-0.1,0-0.2-0.1-0.2-0.1c-1.3-0.7-2.7-1.4-4.2-1.9h4.4V32.4z
		 M64.9,77.1c-3.8-4-8.1-8.4-12.5-8.4c0,0-0.1,0-0.1,0c-1.8,0-3.5,0.9-5,2.5c-0.6,0.6-1.3,1.5-2.2,2.5c-1.4,1.6-3.1,3.6-5,5.5h-1.4
		c3.6-3.2,7.3-7,9.8-9.7c4.6-5.1,10.3,0.1,15.4,4.7c2.7,2.5,5,4.6,7.1,5h-4C66.2,78.6,65.6,77.9,64.9,77.1z M65.2,79.2H41.7
		c1.6-1.7,3-3.3,4.2-4.7c0.9-1,1.6-1.8,2.2-2.5c1.3-1.4,2.6-2.1,4.2-2.1c0,0,0,0,0.1,0c3.8,0,8,4.3,11.6,8.1
		C64.4,78.4,64.8,78.8,65.2,79.2z M36.8,79.2h-3.5c4.2-2.2,9.2-6.3,12.8-9.3c0.4-0.4,0.8-0.7,1.2-1C45.1,71.4,40.9,75.8,36.8,79.2z
		 M48.1,66.8c-0.8,0.6-1.7,1.4-2.7,2.2c-4.3,3.5-10.6,8.8-14.9,10.2h-0.7v-3c0,0,0.1,0,0.1,0c3.8-0.9,9.4-4.4,13.9-7.2
		c2.1-1.3,4-2.5,5.4-3.3c8.5-4.5,10.7-2.1,13.2,0.7c1.8,2,4,4.4,8.6,4.1c3.5-0.2,5.9,1.8,8.3,4.2v2.7c-2.5-1.9-5.1-3.6-8.1-3.8
		c-2.6-0.2-5-2.2-7.5-4.4C59.4,65.8,54.6,61.7,48.1,66.8z M70.9,69.3c-4.1,0.2-5.8-1.7-7.7-3.7c-2.6-2.9-5.3-5.9-14.6-0.9
		c-1.5,0.8-3.4,2-5.5,3.3c-4.4,2.7-9.8,6.1-13.4,7v-3.2c3.1-0.8,7.3-3,11.4-5.2c3.1-1.7,6-3.3,8.1-3.9c9.1-3,11.1-1.3,13.4,0.6
		c1.6,1.4,3.5,2.9,7.8,2.9c0.2,0,0.4,0,0.6,0c3.5,0,5.9,2.1,8.3,4.6v2.3C77,70.9,74.5,69.2,70.9,69.3z M71,65c-0.1,0-0.1,0-0.2,0
		c-4.2,0.1-5.8-1.3-7.4-2.6c-2.5-2.1-4.8-4-14.5-0.8c-2.1,0.7-5.1,2.3-8.3,4c-3.9,2.1-7.9,4.3-10.9,5.1v-3.2c2-0.5,4.6-2.2,7.4-3.9
		c2.6-1.7,5.4-3.4,7.3-3.9c1.7-0.4,3.2-0.9,4.6-1.3c9.1-2.7,11.2-1,13.4,0.8c1.7,1.4,3.5,2.9,8.2,2.6c3.6-0.2,6.1,1.6,8.6,4v3.3
		C77,66.8,74.5,65,71,65z M70.6,60.6c-4.2,0.3-5.7-1-7.4-2.3c-2.4-1.9-4.8-4-14.5-1.1c-1.4,0.4-2.9,0.8-4.6,1.3
		c-2.1,0.6-4.9,2.3-7.7,4c-2.4,1.5-4.9,3.1-6.7,3.7V63c3-0.8,6.9-2.9,10.8-5c3.2-1.7,6.3-3.4,8.4-4c9.1-2.8,11.2-1,13.4,0.8
		c1.7,1.4,3.6,2.9,8.2,2.6c3.7-0.2,6.3,1.1,8.8,3v3.8C76.9,61.9,74.3,60.3,70.6,60.6z M70.4,56.2c-4.2,0.3-5.7-1-7.3-2.4
		c-2.4-1.9-4.8-3.9-14.5-1c-2.2,0.7-5.3,2.3-8.6,4.1c-3.6,2-7.4,4-10.2,4.8v-2.9c0.6-0.2,1.3-0.6,2-1c2.6-1,5.7-2.7,8.6-4.3
		c3.2-1.7,6.2-3.4,8.3-4c9.2-2.8,11.3-1.1,13.5,0.7c1.7,1.3,3.5,2.8,8.1,2.6c3.8-0.2,6.4,0.6,9,1.8v4C76.8,57.2,74.2,56,70.4,56.2z
		 M70.2,51.8c-4.1,0.2-5.7-1-7.3-2.4c-2.4-1.9-4.8-3.9-14.6-0.9c-2.2,0.7-5.3,2.3-8.5,4.1c-1,0.5-2,1.1-3,1.6c1-0.8,2-1.7,3-2.6
		c3.2-2.8,6.5-5.6,8.6-6.3c9.4-2.9,11.4-1.3,13.8,0.6c1.6,1.3,3.5,2.7,7.8,2.8c3.9,0,6.6,0.5,9.2,1.1v3.8
		C76.8,52.4,74.1,51.6,70.2,51.8z M70.1,47.4c-3.9,0-5.5-1.3-7.1-2.5c-2.5-2-4.9-3.8-14.9-0.8c-2.4,0.7-5.6,3.6-9.1,6.5
		c-2.7,2.3-5.5,4.7-7.8,6.1c-0.5,0.2-1,0.4-1.5,0.5v-2.9c2.9-1,6.5-4.1,10.1-7.2c3.1-2.7,6.3-5.5,8.5-6.2c9.6-3.3,11.6-1.6,13.9,0.3
		c1.6,1.3,3.4,2.9,7.7,2.9c3.6,0,6.1,0.5,8.6,1c0.3,0.1,0.5,0.1,0.8,0.2v3.1C76.7,47.8,74,47.4,70.1,47.4z M78.7,44
		c-2.5-0.5-5.1-1-8.8-1c-3.9,0-5.4-1.3-7-2.6c-2.5-2.1-4.8-4-15.1-0.5c-2.4,0.8-5.5,3.6-8.9,6.5c-3.3,2.9-6.7,5.8-9.3,6.8v-3
		c2.8-0.8,6.4-3.7,9.8-6.4c3-2.4,5.8-4.7,7.9-5.5c9.7-3.5,11.8-2.1,14.3-0.5c1.7,1.1,3.6,2.3,8.1,2.1c3.7-0.2,6.3,0.5,8.7,1.2
		c0.3,0.1,0.5,0.1,0.8,0.2v2.8C79.1,44.1,78.9,44.1,78.7,44z M78.8,39.9c-2.5-0.7-5.2-1.5-9.1-1.3c-4,0.3-5.7-0.8-7.4-1.9
		c-2.6-1.7-5.1-3.3-15.4,0.4c-2.3,0.8-5.2,3.2-8.3,5.7c-3.2,2.6-6.5,5.2-9,6.1v-3c2.7-0.6,5.8-2.8,8.9-5c2.8-2,5.4-3.8,7.4-4.3
		c9.3-2.4,12.1-1.9,15-1.5c2.1,0.4,4.2,0.7,8.7,0.2c3.9-0.4,6.5,0.6,8.9,1.7c0.2,0.1,0.5,0.2,0.7,0.3v2.6C79.1,40,79,40,78.8,39.9z
		 M29.7,44.8v-3.2c2.4-0.5,5-1.9,7.6-3.4c2.7-1.5,5.2-2.9,7.1-3c1.3-0.1,2.5-0.2,3.6-0.3c-0.7,0.2-1.5,0.4-2.4,0.6
		c-2.2,0.6-4.9,2.5-7.7,4.5C35,42.1,32.1,44.1,29.7,44.8z M79.1,36.1c-2.6-1.1-5.3-2.3-9.5-1.8c-4.2,0.5-6.3,0.1-8.3-0.2
		c-1.4-0.2-2.8-0.5-4.8-0.4c1.1-0.3,2.1-0.5,3.1-0.8c2.7-0.7,5.3-1.4,10-1.8c4-0.4,6.5,1,9,2.3c0.3,0.1,0.5,0.3,0.8,0.4v2.4
		C79.2,36.1,79.1,36.1,79.1,36.1z M65.1,30.4c-2.3,0.4-4.1,0.8-5.9,1.3c-3.4,0.9-6.9,1.8-14.8,2.3c-2.1,0.1-4.8,1.6-7.6,3.2
		c-2.4,1.3-4.9,2.7-7,3.2v-10H65.1z M75.2,79.2c-1.3-0.6-2.6-1-3.9-1.1c-1.7-0.2-4.1-2.4-6.7-4.8c-4.3-3.9-9.4-8.5-14.1-6.8
		c4.8-2.6,8.5,0.4,12.3,3.7c2.6,2.2,5.2,4.5,8.2,4.6c3,0.2,5.6,2.1,8.2,4.1v0.2H75.2z"/>
</g>
</svg>
