<?xml version="1.0" encoding="utf-8"?>
<!-- Generator: Adobe Illustrator 24.3.0, SVG Export Plug-In . SVG Version: 6.00 Build 0)  -->
<svg version="1.1" id="Layer_1" xmlns="http://www.w3.org/2000/svg" xmlns:xlink="http://www.w3.org/1999/xlink" x="0px" y="0px"
	 viewBox="0 0 216 144" style="enable-background:new 0 0 216 144;" xml:space="preserve">
<style type="text/css">
	.st0{fill:#0F0F0F;}
	.st1{fill:#AEA7A1;}
	.st2{fill:#606060;}
	.st3{fill:#EFEFEF;}
</style>
<g>
	<g>
		<path class="st0" d="M79.8,75.4v-3.7c0-2.7,2-4.9,4.6-4.9c1.4,0,2.6,0.7,3.5,1.7h0.1v-1.4h2.2v12.8h-2.2v-1.4h-0.1
			c-0.8,1.1-2.1,1.7-3.5,1.7C81.8,80.3,79.8,78.1,79.8,75.4z M87.9,75.4v-3.9c0-1.6-1.4-2.9-3-2.9c-1.6,0-3,1.3-3,3.1v3.4
			c0,1.8,1.4,3.2,3,3.2C86.5,78.4,87.9,77,87.9,75.4z"/>
		<path class="st0" d="M93.1,75.4v-3.7c0-2.7,2-4.9,4.6-4.9c1.4,0,2.6,0.7,3.5,1.7h0.1V62h2.3v17.9h-2.3v-1.4h-0.1
			c-0.8,1.1-2.1,1.7-3.5,1.7C95.2,80.3,93.1,78.1,93.1,75.4z M101.3,75.4v-3.8c0-1.6-1.4-2.9-3-2.9c-1.6,0-3,1.4-3,3.2v3.4
			c0,1.8,1.4,3.2,3,3.2C99.8,78.4,101.3,77,101.3,75.4z"/>
		<path class="st0" d="M106.4,75.4v-3.7c0-2.7,2-4.9,4.6-4.9c1.4,0,2.6,0.7,3.5,1.7h0.1v-1.4h2.2v12.8h-2.2v-1.4h-0.1
			c-0.8,1.1-2.1,1.7-3.5,1.7C108.5,80.3,106.4,78.1,106.4,75.4z M114.6,75.4v-3.9c0-1.6-1.4-2.9-3-2.9c-1.6,0-3,1.3-3,3.1v3.4
			c0,1.8,1.4,3.2,3,3.2C113.1,78.4,114.6,77,114.6,75.4z"/>
		<path class="st0" d="M119,67h1.8v1.7h0.1c0.3-1,1.1-2,2.3-2c1.4,0,2.3,0.8,2.6,2.2h0c0.3-1.2,1.3-2.2,2.7-2.2c1.9,0,3,1.6,3,4.3
			v8.8h-1.8v-8.3c0-1.8-0.6-2.8-1.7-2.8c-1,0-1.8,1.1-1.8,2.9v8.1h-1.8v-8.1c0-1.9-0.6-2.9-1.7-2.9c-1,0-1.8,1.2-1.8,2.9v8.1H119V67
			z"/>
		<path class="st0" d="M133.7,74.5v-2c0-3.5,2-5.7,5.2-5.7c3.2,0,5.3,2.2,5.3,5.7v2c0,3.6-2,5.8-5.3,5.8S133.7,78.1,133.7,74.5z
			 M142,74.6v-2c0-2.4-1.1-3.8-3-3.8c-1.9,0-3,1.4-3,3.8v2c0,2.4,1.1,3.8,3,3.8C140.9,78.4,142,76.9,142,74.6z"/>
		<path class="st0" d="M147.1,74.5v-2c0-3.5,2-5.7,5.2-5.7c3.2,0,5.3,2.2,5.3,5.7v2c0,3.6-2,5.8-5.3,5.8
			C149.1,80.3,147.1,78.1,147.1,74.5z M155.3,74.6v-2c0-2.4-1.1-3.8-3-3.8c-1.9,0-3,1.4-3,3.8v2c0,2.4,1.1,3.8,3,3.8
			C154.2,78.4,155.3,76.9,155.3,74.6z"/>
		<path class="st0" d="M166.2,71.3v6.6h4.4v2h-11.1v-2h4.4v-8.7h-4.4v-2h6.6v1.7c0.9-1.2,2.4-2.1,4.4-2.1c0.7,0,1.4,0.1,1.8,0.2v2.2
			c-0.6-0.1-1.2-0.3-2-0.3C168.5,68.9,166.9,69.8,166.2,71.3z"/>
		<path class="st0" d="M174,74.5v-2.1c0-3.5,2.1-5.7,5.4-5.7c3.3,0,5.4,2.2,5.4,5.6v1.7h-8.6v0.5c0,2.4,1.2,3.7,3.2,3.7
			c1.3,0,2.3-0.5,2.7-1.6h2.4c-0.6,2.3-2.5,3.6-5.1,3.6C176.1,80.3,174,78.1,174,74.5z M182.6,72.3c-0.1-2.3-1.3-3.7-3.1-3.7
			c-1.9,0-3.1,1.4-3.2,3.7H182.6z"/>
	</g>
	<g>
		<path class="st0" d="M30.4,50.3V92h42.3V50.3H30.4z M71.8,52.9c-0.1,0-0.1-0.1-0.2-0.1c-1.1-0.6-2.2-1.1-3.4-1.5h3.6V52.9z
			 M60,89.3c-3.1-3.2-6.6-6.9-10.2-6.9c0,0,0,0-0.1,0c-1.5,0-2.9,0.7-4.1,2c-0.5,0.5-1.1,1.2-1.8,2c-1.1,1.3-2.5,2.9-4,4.5h-1.2
			c3-2.6,5.9-5.7,8-7.9c3.8-4.1,8.4,0.1,12.5,3.9c2.2,2,4.1,3.7,5.7,4.1h-3.2C61.1,90.5,60.6,89.9,60,89.3z M60.3,91H41.2
			c1.3-1.4,2.4-2.7,3.4-3.8c0.7-0.8,1.3-1.5,1.8-2c1-1.1,2.2-1.7,3.4-1.7c0,0,0,0,0.1,0c3.1,0,6.5,3.5,9.5,6.6
			C59.7,90.3,60,90.7,60.3,91z M37.2,91h-2.8c3.4-1.8,7.5-5.2,10.4-7.6c0.4-0.3,0.7-0.6,1-0.8C43.9,84.6,40.5,88.2,37.2,91z
			 M46.4,80.9c-0.6,0.5-1.4,1.1-2.2,1.8c-3.5,2.9-8.6,7.1-12.2,8.3h-0.6v-2.5c0,0,0.1,0,0.1,0c3.1-0.8,7.6-3.6,11.3-5.9
			c1.7-1.1,3.3-2,4.4-2.6c6.9-3.6,8.7-1.7,10.7,0.6c1.5,1.7,3.3,3.5,7,3.4c2.8-0.1,4.8,1.5,6.8,3.4v2.2c-2-1.5-4.1-2.9-6.6-3.1
			c-2.1-0.1-4-1.8-6.1-3.5C55.6,80,51.7,76.7,46.4,80.9z M64.9,83c-3.3,0.2-4.7-1.4-6.2-3c-2.1-2.3-4.3-4.8-11.9-0.8
			c-1.2,0.6-2.8,1.6-4.5,2.7c-3.6,2.2-8,5-10.9,5.7V85c2.5-0.6,6-2.5,9.3-4.3c2.5-1.4,4.9-2.7,6.6-3.2c7.4-2.5,9-1.1,10.9,0.5
			c1.3,1.1,2.8,2.4,6.3,2.4c0.2,0,0.3,0,0.5,0c2.8,0,4.8,1.7,6.8,3.8V86C69.9,84.3,67.8,82.8,64.9,83z M65,79.4c-0.1,0-0.1,0-0.2,0
			c-3.4,0.1-4.7-1.1-6-2.1c-2-1.7-3.9-3.3-11.8-0.7c-1.7,0.6-4.2,1.9-6.7,3.3c-3.2,1.7-6.4,3.5-8.8,4.1v-2.6c1.6-0.4,3.8-1.8,6-3.2
			c2.2-1.3,4.4-2.7,6-3.2c1.4-0.4,2.6-0.7,3.8-1.1c7.4-2.2,9.1-0.8,10.9,0.7c1.4,1.1,2.9,2.4,6.7,2.1c3-0.2,5,1.3,7,3.2v2.7
			C69.9,80.9,67.8,79.4,65,79.4z M64.7,75.8c-3.4,0.2-4.7-0.8-6-1.9c-1.9-1.6-3.9-3.2-11.8-0.9c-1.1,0.3-2.4,0.7-3.7,1
			c-1.7,0.5-4,1.9-6.2,3.3c-2,1.2-4,2.5-5.5,3v-2.6c2.4-0.6,5.6-2.4,8.8-4c2.6-1.4,5.1-2.8,6.8-3.3c7.4-2.2,9.1-0.8,10.9,0.6
			c1.4,1.1,2.9,2.4,6.7,2.1c3-0.2,5.1,0.9,7.2,2.4v3.1C69.8,76.9,67.7,75.6,64.7,75.8z M64.5,72.2c-3.4,0.2-4.6-0.8-6-1.9
			c-1.9-1.6-3.9-3.2-11.8-0.8c-1.8,0.5-4.3,1.9-7,3.4c-3,1.6-6,3.2-8.3,3.9v-2.3c0.5-0.2,1.1-0.5,1.6-0.8c2.1-0.8,4.6-2.2,7-3.5
			c2.6-1.4,5.1-2.7,6.8-3.2c7.5-2.3,9.2-0.9,11,0.6c1.4,1.1,2.9,2.3,6.6,2.1c3.1-0.2,5.2,0.5,7.3,1.5v3.3
			C69.8,73.1,67.6,72.1,64.5,72.2z M64.4,68.7c-3.4,0.2-4.6-0.9-5.9-1.9c-1.9-1.6-3.9-3.2-11.9-0.8c-1.8,0.5-4.3,1.9-6.9,3.3
			c-0.8,0.4-1.6,0.9-2.4,1.3c0.8-0.7,1.6-1.4,2.4-2.1c2.6-2.3,5.3-4.6,7-5.1c7.6-2.3,9.3-1,11.2,0.5c1.3,1,2.9,2.2,6.4,2.2
			c3.2,0,5.3,0.4,7.5,0.9v3.1C69.7,69.1,67.5,68.5,64.4,68.7z M64.3,65.1c-3.2,0-4.5-1-5.8-2c-2-1.6-4-3.1-12.1-0.6
			c-1.9,0.6-4.6,2.9-7.4,5.3c-2.2,1.9-4.5,3.9-6.4,5c-0.4,0.2-0.8,0.3-1.2,0.4v-2.3c2.4-0.8,5.3-3.3,8.2-5.9
			c2.5-2.2,5.2-4.5,6.9-5.1c7.8-2.7,9.4-1.3,11.3,0.2c1.3,1.1,2.8,2.3,6.3,2.3c2.9,0,5,0.4,7,0.8c0.2,0,0.4,0.1,0.6,0.1V66
			C69.6,65.5,67.5,65.1,64.3,65.1z M71.3,62.4c-2-0.4-4.1-0.8-7.2-0.8c-3.1,0-4.4-1.1-5.7-2.1c-2-1.7-3.9-3.3-12.3-0.4
			c-1.9,0.7-4.5,2.9-7.2,5.3c-2.7,2.3-5.4,4.7-7.6,5.6v-2.4c2.3-0.7,5.2-3,8-5.2c2.4-2,4.7-3.9,6.4-4.5c7.9-2.8,9.6-1.7,11.7-0.4
			c1.4,0.9,3,1.9,6.6,1.7c3.1-0.2,5.1,0.4,7.1,1c0.2,0.1,0.4,0.1,0.6,0.2v2.3C71.6,62.4,71.5,62.4,71.3,62.4z M71.4,59
			c-2.1-0.6-4.2-1.2-7.4-1c-3.3,0.2-4.6-0.7-6-1.5c-2.1-1.4-4.2-2.7-12.5,0.3c-1.8,0.7-4.2,2.6-6.7,4.6c-2.6,2.1-5.3,4.3-7.3,5V64
			c2.2-0.5,4.7-2.3,7.2-4.1c2.3-1.6,4.4-3.1,6-3.5c7.6-2,9.8-1.6,12.2-1.2c1.7,0.3,3.5,0.6,7.1,0.2c3.2-0.4,5.3,0.5,7.3,1.4
			c0.2,0.1,0.4,0.2,0.6,0.2v2.1C71.6,59.1,71.5,59.1,71.4,59z M31.4,63v-2.6c1.9-0.4,4.1-1.6,6.2-2.7c2.2-1.2,4.3-2.4,5.8-2.5
			c1.1-0.1,2-0.2,2.9-0.2c-0.6,0.1-1.2,0.3-1.9,0.5c-1.8,0.5-4,2-6.3,3.6C35.8,60.8,33.4,62.4,31.4,63z M71.6,55.9
			c-2.1-0.9-4.3-1.8-7.8-1.5c-3.5,0.4-5.1,0.1-6.8-0.2c-1.1-0.2-2.3-0.4-3.9-0.3c0.9-0.2,1.7-0.4,2.5-0.6c2.2-0.6,4.3-1.1,8.1-1.5
			c3.2-0.3,5.3,0.8,7.4,1.9c0.2,0.1,0.4,0.2,0.6,0.3v2C71.7,55.9,71.6,55.9,71.6,55.9z M60.2,51.3c-1.9,0.3-3.3,0.7-4.8,1.1
			c-2.7,0.7-5.6,1.5-12.1,1.9c-1.7,0.1-3.9,1.3-6.2,2.6c-2,1.1-4,2.2-5.7,2.6v-8.1H60.2z M68.4,91c-1-0.5-2.1-0.8-3.1-0.9
			c-1.4-0.1-3.4-2-5.5-3.9c-3.5-3.2-7.6-6.9-11.4-5.5c3.9-2.1,6.9,0.4,10,3c2.1,1.8,4.2,3.6,6.7,3.8c2.4,0.2,4.6,1.7,6.7,3.3V91
			H68.4z"/>
	</g>
</g>
</svg>
